<?xml version="1.0" encoding="UTF-8"?>
<svg id="_레이어_1" data-name="레이어_1" xmlns="http://www.w3.org/2000/svg" version="1.1" viewBox="0 0 80 80">
  <!-- Generator: Adobe Illustrator 29.1.0, SVG Export Plug-In . SVG Version: 2.1.0 Build 142)  -->
  <defs>
    <style>
      .st0 {
        fill: #fff;
      }
    </style>
  </defs>
  <path class="st0" d="M25.71,28.85v22.29h-13.78v-22.29h13.78ZM25.31,32.5v-2.94l-.3-.3h-12.36l-.3.3v10.84c1.14-.41,1.8-1.79,2.84-2.43v4.76l-2.84,2.84c.2.33.45-.07.61-.2.74-.62,1.39-1.48,2.13-2.13h4.76l-3.14,3.24h-4.36c-.02.13.27.41.3.41h4.26c.19,0,2.4,2.33,2.64,2.63.16.2.39.26.3.61h-4.76l-2.74-2.63v3.24h12.97v-11.15l-2.84,2.63v-4.76c.49-.76,2.54-2.18,2.84-2.84.04-.09.05-.33-.1-.3l-2.64,2.63h-4.76l3.14-3.24h4.05s.32-.27.3-.41h-4.36l-3.14-3.24h4.97l2.53,2.43Z"/>
  <polygon class="st0" points="38.48 40.61 38.48 50.74 37.67 50.74 37.67 45.47 36.45 45.47 36.45 50.13 35.44 50.13 35.44 40.81 36.45 41.11 36.45 44.66 37.67 44.66 37.67 40.61 38.48 40.61"/>
  <path class="st0" d="M47.6,46.49v2.43h-5.88v.81h5.98c.21,0,.39.58.3.81h-7.09v-2.43h5.88v-.81h-5.78l-.3-.31.3-.5h6.59Z"/>
  <path class="st0" d="M63.41,37.57v-2.42c-4.07.05-4.58-4.64-.31-4.88,4.87-.27,5.5,4.44.73,4.88v2.42s4.25,0,4.25,0c.02.13-.27.41-.3.41h-8.61v-.41h4.26ZM62.34,30.72c-.48.1-1.58.84-1.73,1.31-1.03,3.41,6.15,3.6,6.06.57-.06-1.92-2.91-2.18-4.33-1.89Z"/>
  <polygon class="st0" points="41.52 30.47 41.52 31.89 47.19 31.89 47.19 32.3 41.52 32.3 41.52 33.72 47.6 33.72 47.6 34.12 41.11 34.12 41.11 29.87 47.3 29.87 47.6 30.17 47.3 30.47 41.52 30.47"/>
  <path class="st0" d="M33.01,41.62c-.02,1.29-.08,2.53.4,3.76l1.63,2.42c-.35.9-1.46-.38-1.71-.72-.21-.29-.56-1.54-.92-1.2-.18.9-1.79,3.69-2.43,1.93,2.07-1.36,2.38-3.88,2.23-6.19h.81Z"/>
  <path class="st0" d="M48.21,43.45l-.22.8c-1.44-.13-2.78-.7-3.73-1.81-.6.7-1.32,1.14-2.19,1.45-.67.24-2.09.79-1.63-.44.91-.09,2.07-.46,2.72-1.11.46-.47.87-2.51,1.52-1.53.15.23.06.69.21,1.01.4.88,2.36,1.78,3.34,1.63Z"/>
  <path class="st0" d="M54.69,30.47v.41h-4.05v5.47l5.07-.4c.53.45-1.77.81-1.92.81h-3.75v-6.28h4.66Z"/>
  <path class="st0" d="M44.76,45.07h4.05v.61h-9.12v-.61h4.05c.12-.38-.32-1.43.31-1.42.96.01.7.7.71,1.42Z"/>
  <path class="st0" d="M48.82,35.54c-.48.78-1.83.27-2.63.41v3.24h-.61v-3.24h-2.84v3.24h-.41v-3.24c-.8-.14-2.16.38-2.63-.41h9.12Z"/>
  <path class="st0" d="M34.83,30.27c-.35,2.54,1.26,3.12,3.05,4.16.12.07.78.2.4.5-.52.42-3.72-1.96-3.75-2.84-.64,1.48-2.18,2.54-3.75,2.84l2.74-2.02c.81-.76.77-1.59.71-2.64h.61Z"/>
  <rect class="st0" x="56.92" y="29.46" width=".41" height="9.73"/>
  <rect class="st0" x="30.17" y="37.37" width="8.92" height=".41"/>
  <path d="M25.31,32.5l-2.53-2.43h-4.97l3.14,3.24h4.36c.02.13-.27.41-.3.41h-4.05l-3.14,3.24h4.76l2.64-2.63c.15-.03.14.21.1.3-.3.66-2.34,2.08-2.84,2.84v4.76l2.84-2.63v11.15h-12.97v-3.24l2.74,2.63h4.76c.09-.35-.15-.41-.3-.61-.23-.31-2.45-2.63-2.64-2.63h-4.26s-.32-.27-.3-.41h4.36l3.14-3.24h-4.76c-.74.65-1.39,1.51-2.13,2.13-.16.13-.41.53-.61.2l2.84-2.84v-4.76c-1.04.64-1.69,2.02-2.84,2.43v-10.84l.3-.3h12.36l.3.3v2.94Z"/>
  <path d="M62.34,30.72c1.42-.29,4.27-.03,4.33,1.89.1,3.02-7.08,2.83-6.06-.57.14-.48,1.24-1.21,1.73-1.31Z"/>
</svg>